# xmcd
#
# Track frame offsets: 
#        150
#        23841
#        43447
#        66702
#        84695
#        107303
#        137094
#        158801
#        184756
#        202459
#        218611
#
# Disc length: 3251 seconds
#
# Revision: 0
# Processed by: cddbd v1.5.1PL2 Copyright (c) Steve Scherf et al.
# Submitted via: ExactAudioCopy v0.95b2
#
DISCID=a60cb10b
DTITLE=Men Of Steel - Four Way Mirror
DYEAR=2006
DGENRE=Guitar Hero
TTITLE0=Forked Deer
TTITLE1=Jig Of Slurs - Calliope House
TTITLE2=Un Canadien Errant
TTITLE3=Andante In Steel
TTITLE4=April Kisses - Picking The Guitar
TTITLE5=Church Street Blues
TTITLE6=Thin Air
TTITLE7=Darlin' Corey - Shenandoah Valley
TTITLE8=Si Dolce É'l Tormento
TTITLE9=The Maids Of Mitchelstown
TTITLE10=The Sleeping Tune
EXTD=
EXTT0=
EXTT1=
EXTT2=
EXTT3=
EXTT4=
EXTT5=
EXTT6=
EXTT7=
EXTT8=
EXTT9=
EXTT10=
PLAYORDER=
